# xmcd
#
# Track frame offsets:
# 150
# 12512
# 26447
# 41042
# 54197
# 67707
# 82682
# 94710
# 110055
# 123035
# 136442
# 148330
#
# Disc length: 2142 seconds
#
#
# Revision: 0
# Processed by: cddbd v1.4PL0 Copyright (c) Steve Scherf et al.
# Submitted via: FreeRIP 2.52 
#
DISCID=96085c0c
DTITLE=Tonico e Tinoco - As 12 Mais
DYEAR=1900
DGENRE=
TTITLE0=Destinos Iguais
TTITLE1=Canoeiro
TTITLE2=Besta Ruana
TTITLE3=Marca da Ferradura
TTITLE4=Cana Verde
TTITLE5=Chico Mineiro
TTITLE6=Aparecida do Norte
TTITLE7=Tristeza do Jeca
TTITLE8=Baianinha
TTITLE9=Rei do Gado
TTITLE10=Curitibana
TTITLE11=Tempo de Amor
EXTD=
EXTT0=
EXTT1=
EXTT2=
EXTT3=
EXTT4=
EXTT5=
EXTT6=
EXTT7=
EXTT8=
EXTT9=
EXTT10=
EXTT11=
PLAYORDER=
